<mxfile host="app.diagrams.net" modified="2023-05-13T15:33:46.993Z" agent="Mozilla/5.0 (X11; Ubuntu; Linux x86_64; rv:109.0) Gecko/20100101 Firefox/112.0" etag="mH3W8gJx3H-8i5Ryfesg" version="21.2.9" type="github">
  <diagram id="R2lEEEUBdFMjLlhIrx00" name="Page-1">
    <mxGraphModel dx="1062" dy="531" grid="1" gridSize="10" guides="1" tooltips="1" connect="1" arrows="1" fold="1" page="1" pageScale="1" pageWidth="827" pageHeight="1169" math="0" shadow="0" extFonts="Permanent Marker^https://fonts.googleapis.com/css?family=Permanent+Marker">
      <root>
        <mxCell id="0" />
        <mxCell id="1" parent="0" />
        <mxCell id="0yMVtmjUaFAXfvw1BAXP-1" value="&lt;div&gt;Usuario&lt;/div&gt;" style="whiteSpace=wrap;html=1;align=center;" parent="1" vertex="1">
          <mxGeometry x="162" y="224" width="100" height="40" as="geometry" />
        </mxCell>
        <mxCell id="0yMVtmjUaFAXfvw1BAXP-3" value="nombre" style="ellipse;whiteSpace=wrap;html=1;align=center;" parent="1" vertex="1">
          <mxGeometry x="30" y="141" width="100" height="40" as="geometry" />
        </mxCell>
        <mxCell id="0yMVtmjUaFAXfvw1BAXP-4" value="apellidos" style="ellipse;whiteSpace=wrap;html=1;align=center;" parent="1" vertex="1">
          <mxGeometry x="80" y="89" width="100" height="40" as="geometry" />
        </mxCell>
        <mxCell id="0yMVtmjUaFAXfvw1BAXP-5" value="&lt;div&gt;&lt;u&gt;NIF&lt;/u&gt;&lt;/div&gt;" style="ellipse;whiteSpace=wrap;html=1;align=center;" parent="1" vertex="1">
          <mxGeometry x="181" y="60" width="100" height="40" as="geometry" />
        </mxCell>
        <mxCell id="0yMVtmjUaFAXfvw1BAXP-6" value="direccion" style="ellipse;whiteSpace=wrap;html=1;align=center;" parent="1" vertex="1">
          <mxGeometry x="266" y="110" width="100" height="40" as="geometry" />
        </mxCell>
        <mxCell id="0yMVtmjUaFAXfvw1BAXP-7" value="provincia" style="ellipse;whiteSpace=wrap;html=1;align=center;" parent="1" vertex="1">
          <mxGeometry x="309" y="224" width="100" height="40" as="geometry" />
        </mxCell>
        <mxCell id="0yMVtmjUaFAXfvw1BAXP-8" value="localidad" style="ellipse;whiteSpace=wrap;html=1;align=center;" parent="1" vertex="1">
          <mxGeometry x="274" y="300" width="100" height="40" as="geometry" />
        </mxCell>
        <mxCell id="0yMVtmjUaFAXfvw1BAXP-9" value="&lt;div&gt;cp&lt;/div&gt;" style="ellipse;whiteSpace=wrap;html=1;align=center;" parent="1" vertex="1">
          <mxGeometry x="162" y="340" width="100" height="40" as="geometry" />
        </mxCell>
        <mxCell id="0yMVtmjUaFAXfvw1BAXP-10" value="email" style="ellipse;whiteSpace=wrap;html=1;align=center;" parent="1" vertex="1">
          <mxGeometry x="10" y="224" width="100" height="40" as="geometry" />
        </mxCell>
        <mxCell id="0yMVtmjUaFAXfvw1BAXP-11" value="telefono" style="ellipse;whiteSpace=wrap;html=1;align=center;" parent="1" vertex="1">
          <mxGeometry x="44" y="314" width="100" height="40" as="geometry" />
        </mxCell>
        <mxCell id="0yMVtmjUaFAXfvw1BAXP-17" value="" style="endArrow=none;html=1;rounded=0;exitX=1;exitY=0.5;exitDx=0;exitDy=0;entryX=0;entryY=0.5;entryDx=0;entryDy=0;" parent="1" source="0yMVtmjUaFAXfvw1BAXP-10" target="0yMVtmjUaFAXfvw1BAXP-1" edge="1">
          <mxGeometry relative="1" as="geometry">
            <mxPoint x="128" y="271" as="sourcePoint" />
            <mxPoint x="130" y="284" as="targetPoint" />
          </mxGeometry>
        </mxCell>
        <mxCell id="0yMVtmjUaFAXfvw1BAXP-19" value="" style="endArrow=none;html=1;rounded=0;entryX=0;entryY=0;entryDx=0;entryDy=0;exitX=1;exitY=1;exitDx=0;exitDy=0;" parent="1" source="0yMVtmjUaFAXfvw1BAXP-3" target="0yMVtmjUaFAXfvw1BAXP-1" edge="1">
          <mxGeometry relative="1" as="geometry">
            <mxPoint x="130" y="184" as="sourcePoint" />
            <mxPoint x="462" y="414" as="targetPoint" />
          </mxGeometry>
        </mxCell>
        <mxCell id="0yMVtmjUaFAXfvw1BAXP-20" value="" style="endArrow=none;html=1;rounded=0;entryX=0.25;entryY=0;entryDx=0;entryDy=0;exitX=1;exitY=1;exitDx=0;exitDy=0;" parent="1" source="0yMVtmjUaFAXfvw1BAXP-4" target="0yMVtmjUaFAXfvw1BAXP-1" edge="1">
          <mxGeometry relative="1" as="geometry">
            <mxPoint x="140" y="140" as="sourcePoint" />
            <mxPoint x="462" y="414" as="targetPoint" />
          </mxGeometry>
        </mxCell>
        <mxCell id="0yMVtmjUaFAXfvw1BAXP-21" value="" style="endArrow=none;html=1;rounded=0;exitX=0.5;exitY=1;exitDx=0;exitDy=0;entryX=0.449;entryY=-0.002;entryDx=0;entryDy=0;entryPerimeter=0;" parent="1" source="0yMVtmjUaFAXfvw1BAXP-5" target="0yMVtmjUaFAXfvw1BAXP-1" edge="1">
          <mxGeometry relative="1" as="geometry">
            <mxPoint x="302" y="414" as="sourcePoint" />
            <mxPoint x="462" y="414" as="targetPoint" />
          </mxGeometry>
        </mxCell>
        <mxCell id="0yMVtmjUaFAXfvw1BAXP-22" value="" style="endArrow=none;html=1;rounded=0;entryX=0;entryY=1;entryDx=0;entryDy=0;exitX=0.573;exitY=0.007;exitDx=0;exitDy=0;exitPerimeter=0;" parent="1" source="0yMVtmjUaFAXfvw1BAXP-1" target="0yMVtmjUaFAXfvw1BAXP-6" edge="1">
          <mxGeometry relative="1" as="geometry">
            <mxPoint x="302" y="414" as="sourcePoint" />
            <mxPoint x="462" y="414" as="targetPoint" />
          </mxGeometry>
        </mxCell>
        <mxCell id="0yMVtmjUaFAXfvw1BAXP-23" value="" style="endArrow=none;html=1;rounded=0;entryX=0;entryY=0.5;entryDx=0;entryDy=0;exitX=1;exitY=0.5;exitDx=0;exitDy=0;" parent="1" source="0yMVtmjUaFAXfvw1BAXP-1" target="0yMVtmjUaFAXfvw1BAXP-7" edge="1">
          <mxGeometry relative="1" as="geometry">
            <mxPoint x="280" y="244" as="sourcePoint" />
            <mxPoint x="462" y="411" as="targetPoint" />
          </mxGeometry>
        </mxCell>
        <mxCell id="0yMVtmjUaFAXfvw1BAXP-24" value="" style="endArrow=none;html=1;rounded=0;entryX=0;entryY=0;entryDx=0;entryDy=0;exitX=0.887;exitY=0.998;exitDx=0;exitDy=0;exitPerimeter=0;" parent="1" source="0yMVtmjUaFAXfvw1BAXP-1" target="0yMVtmjUaFAXfvw1BAXP-8" edge="1">
          <mxGeometry relative="1" as="geometry">
            <mxPoint x="270" y="284" as="sourcePoint" />
            <mxPoint x="462" y="414" as="targetPoint" />
          </mxGeometry>
        </mxCell>
        <mxCell id="0yMVtmjUaFAXfvw1BAXP-25" value="" style="endArrow=none;html=1;rounded=0;entryX=0.5;entryY=0;entryDx=0;entryDy=0;exitX=0.5;exitY=1;exitDx=0;exitDy=0;" parent="1" source="0yMVtmjUaFAXfvw1BAXP-1" target="0yMVtmjUaFAXfvw1BAXP-9" edge="1">
          <mxGeometry relative="1" as="geometry">
            <mxPoint x="187" y="264" as="sourcePoint" />
            <mxPoint x="462" y="414" as="targetPoint" />
          </mxGeometry>
        </mxCell>
        <mxCell id="0yMVtmjUaFAXfvw1BAXP-28" value="" style="endArrow=none;html=1;rounded=0;entryX=0;entryY=1;entryDx=0;entryDy=0;exitX=1;exitY=0;exitDx=0;exitDy=0;" parent="1" source="0yMVtmjUaFAXfvw1BAXP-11" target="0yMVtmjUaFAXfvw1BAXP-1" edge="1">
          <mxGeometry relative="1" as="geometry">
            <mxPoint x="302" y="414" as="sourcePoint" />
            <mxPoint x="462" y="414" as="targetPoint" />
          </mxGeometry>
        </mxCell>
        <mxCell id="0yMVtmjUaFAXfvw1BAXP-34" value="stock_minimo" style="ellipse;whiteSpace=wrap;html=1;align=center;" parent="1" vertex="1">
          <mxGeometry x="710" y="834" width="100" height="40" as="geometry" />
        </mxCell>
        <mxCell id="0yMVtmjUaFAXfvw1BAXP-35" value="stock_maximo" style="ellipse;whiteSpace=wrap;html=1;align=center;" parent="1" vertex="1">
          <mxGeometry x="616" y="884" width="100" height="40" as="geometry" />
        </mxCell>
        <mxCell id="0yMVtmjUaFAXfvw1BAXP-37" value="" style="endArrow=none;html=1;rounded=0;exitX=0;exitY=0;exitDx=0;exitDy=0;entryX=1;entryY=0.75;entryDx=0;entryDy=0;" parent="1" source="y5AKyJ1RVhucOHr4Nuto-28" target="y5AKyJ1RVhucOHr4Nuto-11" edge="1">
          <mxGeometry relative="1" as="geometry">
            <mxPoint x="530" y="787.0000000000002" as="sourcePoint" />
            <mxPoint x="578" y="804" as="targetPoint" />
          </mxGeometry>
        </mxCell>
        <mxCell id="0yMVtmjUaFAXfvw1BAXP-38" value="" style="endArrow=none;html=1;rounded=0;exitX=0;exitY=1;exitDx=0;exitDy=0;entryX=1;entryY=0;entryDx=0;entryDy=0;" parent="1" source="y5AKyJ1RVhucOHr4Nuto-30" target="y5AKyJ1RVhucOHr4Nuto-21" edge="1">
          <mxGeometry relative="1" as="geometry">
            <mxPoint x="715.7271701470263" y="728.1750624642789" as="sourcePoint" />
            <mxPoint x="678" y="764" as="targetPoint" />
          </mxGeometry>
        </mxCell>
        <mxCell id="0yMVtmjUaFAXfvw1BAXP-39" value="" style="endArrow=none;html=1;rounded=0;entryX=0;entryY=0.5;entryDx=0;entryDy=0;exitX=1;exitY=0.5;exitDx=0;exitDy=0;" parent="1" source="y5AKyJ1RVhucOHr4Nuto-21" edge="1">
          <mxGeometry relative="1" as="geometry">
            <mxPoint x="678" y="784" as="sourcePoint" />
            <mxPoint x="716.0000000000025" y="784" as="targetPoint" />
          </mxGeometry>
        </mxCell>
        <mxCell id="0yMVtmjUaFAXfvw1BAXP-40" value="" style="endArrow=none;html=1;rounded=0;entryX=0.75;entryY=1;entryDx=0;entryDy=0;exitX=0.5;exitY=0;exitDx=0;exitDy=0;" parent="1" source="0yMVtmjUaFAXfvw1BAXP-35" target="y5AKyJ1RVhucOHr4Nuto-21" edge="1">
          <mxGeometry relative="1" as="geometry">
            <mxPoint x="288" y="954" as="sourcePoint" />
            <mxPoint x="653" y="804" as="targetPoint" />
          </mxGeometry>
        </mxCell>
        <mxCell id="0yMVtmjUaFAXfvw1BAXP-41" value="" style="endArrow=none;html=1;rounded=0;entryX=1;entryY=1;entryDx=0;entryDy=0;exitX=0;exitY=0;exitDx=0;exitDy=0;" parent="1" source="0yMVtmjUaFAXfvw1BAXP-34" target="y5AKyJ1RVhucOHr4Nuto-21" edge="1">
          <mxGeometry relative="1" as="geometry">
            <mxPoint x="288" y="954" as="sourcePoint" />
            <mxPoint x="678" y="804" as="targetPoint" />
          </mxGeometry>
        </mxCell>
        <mxCell id="0yMVtmjUaFAXfvw1BAXP-42" value="Proveedor" style="whiteSpace=wrap;html=1;align=center;" parent="1" vertex="1">
          <mxGeometry x="162" y="510" width="100" height="40" as="geometry" />
        </mxCell>
        <mxCell id="0yMVtmjUaFAXfvw1BAXP-44" value="&lt;div&gt;nombre&lt;/div&gt;" style="ellipse;whiteSpace=wrap;html=1;align=center;" parent="1" vertex="1">
          <mxGeometry x="93" y="410" width="100" height="40" as="geometry" />
        </mxCell>
        <mxCell id="0yMVtmjUaFAXfvw1BAXP-45" value="direccion" style="ellipse;whiteSpace=wrap;html=1;align=center;" parent="1" vertex="1">
          <mxGeometry x="321" y="451" width="100" height="40" as="geometry" />
        </mxCell>
        <mxCell id="0yMVtmjUaFAXfvw1BAXP-46" value="provincia" style="ellipse;whiteSpace=wrap;html=1;align=center;" parent="1" vertex="1">
          <mxGeometry x="320" y="576" width="100" height="40" as="geometry" />
        </mxCell>
        <mxCell id="0yMVtmjUaFAXfvw1BAXP-47" value="localidad" style="ellipse;whiteSpace=wrap;html=1;align=center;" parent="1" vertex="1">
          <mxGeometry x="227" y="636" width="100" height="40" as="geometry" />
        </mxCell>
        <mxCell id="0yMVtmjUaFAXfvw1BAXP-48" value="&lt;div&gt;cp&lt;/div&gt;" style="ellipse;whiteSpace=wrap;html=1;align=center;" parent="1" vertex="1">
          <mxGeometry x="56" y="604" width="100" height="40" as="geometry" />
        </mxCell>
        <mxCell id="0yMVtmjUaFAXfvw1BAXP-49" value="email" style="ellipse;whiteSpace=wrap;html=1;align=center;" parent="1" vertex="1">
          <mxGeometry x="10" y="463" width="100" height="40" as="geometry" />
        </mxCell>
        <mxCell id="0yMVtmjUaFAXfvw1BAXP-50" value="telefono" style="ellipse;whiteSpace=wrap;html=1;align=center;" parent="1" vertex="1">
          <mxGeometry x="10" y="546" width="100" height="40" as="geometry" />
        </mxCell>
        <mxCell id="0yMVtmjUaFAXfvw1BAXP-51" value="&lt;u&gt;CIF/NIF&lt;/u&gt;" style="ellipse;whiteSpace=wrap;html=1;align=center;" parent="1" vertex="1">
          <mxGeometry x="236" y="410" width="100" height="40" as="geometry" />
        </mxCell>
        <mxCell id="0yMVtmjUaFAXfvw1BAXP-52" value="" style="endArrow=none;html=1;rounded=0;entryX=0;entryY=0.5;entryDx=0;entryDy=0;exitX=1;exitY=0.25;exitDx=0;exitDy=0;" parent="1" source="0yMVtmjUaFAXfvw1BAXP-42" target="0yMVtmjUaFAXfvw1BAXP-45" edge="1">
          <mxGeometry relative="1" as="geometry">
            <mxPoint x="182" y="501" as="sourcePoint" />
            <mxPoint x="342" y="501" as="targetPoint" />
          </mxGeometry>
        </mxCell>
        <mxCell id="0yMVtmjUaFAXfvw1BAXP-53" value="" style="endArrow=none;html=1;rounded=0;entryX=0.019;entryY=0.368;entryDx=0;entryDy=0;entryPerimeter=0;exitX=1;exitY=0.75;exitDx=0;exitDy=0;" parent="1" source="0yMVtmjUaFAXfvw1BAXP-42" target="0yMVtmjUaFAXfvw1BAXP-46" edge="1">
          <mxGeometry relative="1" as="geometry">
            <mxPoint x="302" y="511" as="sourcePoint" />
            <mxPoint x="462" y="511" as="targetPoint" />
          </mxGeometry>
        </mxCell>
        <mxCell id="0yMVtmjUaFAXfvw1BAXP-54" value="" style="endArrow=none;html=1;rounded=0;entryX=0.5;entryY=0;entryDx=0;entryDy=0;exitX=0.75;exitY=1;exitDx=0;exitDy=0;" parent="1" source="0yMVtmjUaFAXfvw1BAXP-42" target="0yMVtmjUaFAXfvw1BAXP-47" edge="1">
          <mxGeometry relative="1" as="geometry">
            <mxPoint x="260" y="581" as="sourcePoint" />
            <mxPoint x="312" y="581" as="targetPoint" />
          </mxGeometry>
        </mxCell>
        <mxCell id="0yMVtmjUaFAXfvw1BAXP-55" value="" style="endArrow=none;html=1;rounded=0;entryX=1;entryY=0;entryDx=0;entryDy=0;exitX=0.25;exitY=1;exitDx=0;exitDy=0;" parent="1" source="0yMVtmjUaFAXfvw1BAXP-42" target="0yMVtmjUaFAXfvw1BAXP-48" edge="1">
          <mxGeometry relative="1" as="geometry">
            <mxPoint x="302" y="511" as="sourcePoint" />
            <mxPoint x="462" y="511" as="targetPoint" />
          </mxGeometry>
        </mxCell>
        <mxCell id="0yMVtmjUaFAXfvw1BAXP-56" value="" style="endArrow=none;html=1;rounded=0;exitX=1;exitY=0;exitDx=0;exitDy=0;entryX=0;entryY=0.75;entryDx=0;entryDy=0;" parent="1" source="0yMVtmjUaFAXfvw1BAXP-50" target="0yMVtmjUaFAXfvw1BAXP-42" edge="1">
          <mxGeometry relative="1" as="geometry">
            <mxPoint x="302" y="511" as="sourcePoint" />
            <mxPoint x="462" y="511" as="targetPoint" />
          </mxGeometry>
        </mxCell>
        <mxCell id="0yMVtmjUaFAXfvw1BAXP-57" value="" style="endArrow=none;html=1;rounded=0;entryX=1;entryY=1;entryDx=0;entryDy=0;exitX=0;exitY=0.25;exitDx=0;exitDy=0;" parent="1" source="0yMVtmjUaFAXfvw1BAXP-42" target="0yMVtmjUaFAXfvw1BAXP-49" edge="1">
          <mxGeometry relative="1" as="geometry">
            <mxPoint x="302" y="511" as="sourcePoint" />
            <mxPoint x="462" y="511" as="targetPoint" />
          </mxGeometry>
        </mxCell>
        <mxCell id="0yMVtmjUaFAXfvw1BAXP-59" value="" style="endArrow=none;html=1;rounded=0;entryX=0.25;entryY=0;entryDx=0;entryDy=0;exitX=1;exitY=1;exitDx=0;exitDy=0;" parent="1" source="0yMVtmjUaFAXfvw1BAXP-44" target="0yMVtmjUaFAXfvw1BAXP-42" edge="1">
          <mxGeometry relative="1" as="geometry">
            <mxPoint x="172" y="451" as="sourcePoint" />
            <mxPoint x="462" y="511" as="targetPoint" />
          </mxGeometry>
        </mxCell>
        <mxCell id="0yMVtmjUaFAXfvw1BAXP-60" value="" style="endArrow=none;html=1;rounded=0;entryX=0.75;entryY=0;entryDx=0;entryDy=0;exitX=0;exitY=1;exitDx=0;exitDy=0;" parent="1" source="0yMVtmjUaFAXfvw1BAXP-51" target="0yMVtmjUaFAXfvw1BAXP-42" edge="1">
          <mxGeometry relative="1" as="geometry">
            <mxPoint x="282" y="461" as="sourcePoint" />
            <mxPoint x="462" y="511" as="targetPoint" />
          </mxGeometry>
        </mxCell>
        <mxCell id="0yMVtmjUaFAXfvw1BAXP-63" value="Pedido" style="whiteSpace=wrap;html=1;align=center;" parent="1" vertex="1">
          <mxGeometry x="613" y="224" width="100" height="40" as="geometry" />
        </mxCell>
        <mxCell id="0yMVtmjUaFAXfvw1BAXP-65" value="fecha" style="ellipse;whiteSpace=wrap;html=1;align=center;" parent="1" vertex="1">
          <mxGeometry x="540" y="20" width="100" height="40" as="geometry" />
        </mxCell>
        <mxCell id="0yMVtmjUaFAXfvw1BAXP-71" value="" style="endArrow=none;html=1;rounded=0;entryX=0;entryY=0.5;entryDx=0;entryDy=0;exitX=1;exitY=0;exitDx=0;exitDy=0;" parent="1" source="0yMVtmjUaFAXfvw1BAXP-72" target="0yMVtmjUaFAXfvw1BAXP-65" edge="1">
          <mxGeometry relative="1" as="geometry">
            <mxPoint x="240" y="394" as="sourcePoint" />
            <mxPoint x="400" y="394" as="targetPoint" />
          </mxGeometry>
        </mxCell>
        <mxCell id="0yMVtmjUaFAXfvw1BAXP-72" value="Cambia_estado" style="shape=rhombus;perimeter=rhombusPerimeter;whiteSpace=wrap;html=1;align=center;" parent="1" vertex="1">
          <mxGeometry x="409" y="83" width="120" height="60" as="geometry" />
        </mxCell>
        <mxCell id="0yMVtmjUaFAXfvw1BAXP-75" value="" style="endArrow=none;html=1;rounded=0;entryX=0;entryY=1;entryDx=0;entryDy=0;exitX=1;exitY=0;exitDx=0;exitDy=0;" parent="1" source="0yMVtmjUaFAXfvw1BAXP-1" target="0yMVtmjUaFAXfvw1BAXP-72" edge="1">
          <mxGeometry relative="1" as="geometry">
            <mxPoint x="240" y="394" as="sourcePoint" />
            <mxPoint x="400" y="394" as="targetPoint" />
          </mxGeometry>
        </mxCell>
        <mxCell id="0yMVtmjUaFAXfvw1BAXP-76" value="" style="endArrow=none;html=1;rounded=0;entryX=0.25;entryY=0;entryDx=0;entryDy=0;exitX=1;exitY=1;exitDx=0;exitDy=0;" parent="1" source="0yMVtmjUaFAXfvw1BAXP-72" target="0yMVtmjUaFAXfvw1BAXP-63" edge="1">
          <mxGeometry relative="1" as="geometry">
            <mxPoint x="240" y="394" as="sourcePoint" />
            <mxPoint x="620" y="324" as="targetPoint" />
          </mxGeometry>
        </mxCell>
        <mxCell id="0yMVtmjUaFAXfvw1BAXP-81" value="Linea_pedido" style="shape=ext;margin=3;double=1;whiteSpace=wrap;html=1;align=center;" parent="1" vertex="1">
          <mxGeometry x="578" y="464" width="100" height="40" as="geometry" />
        </mxCell>
        <mxCell id="0yMVtmjUaFAXfvw1BAXP-82" value="Incluye" style="shape=rhombus;perimeter=rhombusPerimeter;whiteSpace=wrap;html=1;align=center;" parent="1" vertex="1">
          <mxGeometry x="604" y="329" width="120" height="60" as="geometry" />
        </mxCell>
        <mxCell id="0yMVtmjUaFAXfvw1BAXP-83" value="" style="endArrow=none;html=1;rounded=0;entryX=0.5;entryY=0;entryDx=0;entryDy=0;exitX=0.5;exitY=1;exitDx=0;exitDy=0;" parent="1" source="0yMVtmjUaFAXfvw1BAXP-63" target="0yMVtmjUaFAXfvw1BAXP-82" edge="1">
          <mxGeometry relative="1" as="geometry">
            <mxPoint x="40" y="554" as="sourcePoint" />
            <mxPoint x="200" y="554" as="targetPoint" />
            <Array as="points" />
          </mxGeometry>
        </mxCell>
        <mxCell id="0yMVtmjUaFAXfvw1BAXP-84" value="" style="endArrow=none;html=1;rounded=0;entryX=0.5;entryY=0;entryDx=0;entryDy=0;exitX=0.5;exitY=1;exitDx=0;exitDy=0;" parent="1" source="0yMVtmjUaFAXfvw1BAXP-82" target="0yMVtmjUaFAXfvw1BAXP-81" edge="1">
          <mxGeometry relative="1" as="geometry">
            <mxPoint x="290" y="434" as="sourcePoint" />
            <mxPoint x="450" y="434" as="targetPoint" />
            <Array as="points">
              <mxPoint x="664" y="420" />
              <mxPoint x="630" y="420" />
            </Array>
          </mxGeometry>
        </mxCell>
        <mxCell id="0yMVtmjUaFAXfvw1BAXP-85" value="Solicita" style="shape=rhombus;perimeter=rhombusPerimeter;whiteSpace=wrap;html=1;align=center;" parent="1" vertex="1">
          <mxGeometry x="568" y="594" width="120" height="60" as="geometry" />
        </mxCell>
        <mxCell id="0yMVtmjUaFAXfvw1BAXP-86" value="" style="endArrow=none;html=1;rounded=0;entryX=0.5;entryY=0;entryDx=0;entryDy=0;exitX=0.5;exitY=1;exitDx=0;exitDy=0;" parent="1" source="0yMVtmjUaFAXfvw1BAXP-81" target="0yMVtmjUaFAXfvw1BAXP-85" edge="1">
          <mxGeometry relative="1" as="geometry">
            <mxPoint x="290" y="634" as="sourcePoint" />
            <mxPoint x="450" y="634" as="targetPoint" />
          </mxGeometry>
        </mxCell>
        <mxCell id="0yMVtmjUaFAXfvw1BAXP-87" value="" style="endArrow=none;html=1;rounded=0;entryX=0.5;entryY=1;entryDx=0;entryDy=0;exitX=0.5;exitY=0;exitDx=0;exitDy=0;" parent="1" source="y5AKyJ1RVhucOHr4Nuto-21" target="0yMVtmjUaFAXfvw1BAXP-85" edge="1">
          <mxGeometry relative="1" as="geometry">
            <mxPoint x="628" y="764" as="sourcePoint" />
            <mxPoint x="450" y="634" as="targetPoint" />
          </mxGeometry>
        </mxCell>
        <mxCell id="0yMVtmjUaFAXfvw1BAXP-88" value="&lt;div&gt;cantidad&lt;/div&gt;" style="ellipse;whiteSpace=wrap;html=1;align=center;" parent="1" vertex="1">
          <mxGeometry x="710" y="463" width="100" height="40" as="geometry" />
        </mxCell>
        <mxCell id="0yMVtmjUaFAXfvw1BAXP-89" value="" style="endArrow=none;html=1;rounded=0;entryX=0;entryY=0.5;entryDx=0;entryDy=0;exitX=1;exitY=0.5;exitDx=0;exitDy=0;" parent="1" source="0yMVtmjUaFAXfvw1BAXP-81" target="0yMVtmjUaFAXfvw1BAXP-88" edge="1">
          <mxGeometry relative="1" as="geometry">
            <mxPoint x="290" y="364" as="sourcePoint" />
            <mxPoint x="450" y="364" as="targetPoint" />
          </mxGeometry>
        </mxCell>
        <mxCell id="0yMVtmjUaFAXfvw1BAXP-90" value="Suministra" style="shape=rhombus;perimeter=rhombusPerimeter;whiteSpace=wrap;html=1;align=center;" parent="1" vertex="1">
          <mxGeometry x="130" y="1023" width="120" height="60" as="geometry" />
        </mxCell>
        <mxCell id="0yMVtmjUaFAXfvw1BAXP-91" value="" style="endArrow=none;html=1;rounded=0;exitX=0.5;exitY=1;exitDx=0;exitDy=0;entryX=0;entryY=0;entryDx=0;entryDy=0;" parent="1" source="0yMVtmjUaFAXfvw1BAXP-42" target="0yMVtmjUaFAXfvw1BAXP-90" edge="1">
          <mxGeometry relative="1" as="geometry">
            <mxPoint x="190" y="610" as="sourcePoint" />
            <mxPoint x="140" y="1050" as="targetPoint" />
            <Array as="points">
              <mxPoint x="50" y="820" />
            </Array>
          </mxGeometry>
        </mxCell>
        <mxCell id="0yMVtmjUaFAXfvw1BAXP-92" value="" style="endArrow=none;html=1;rounded=0;entryX=1;entryY=0.5;entryDx=0;entryDy=0;exitX=0;exitY=0.5;exitDx=0;exitDy=0;" parent="1" source="y5AKyJ1RVhucOHr4Nuto-11" target="0yMVtmjUaFAXfvw1BAXP-90" edge="1">
          <mxGeometry relative="1" as="geometry">
            <mxPoint x="578" y="764" as="sourcePoint" />
            <mxPoint x="510" y="700" as="targetPoint" />
          </mxGeometry>
        </mxCell>
        <mxCell id="0yMVtmjUaFAXfvw1BAXP-93" value="&lt;span style=&quot;border-bottom: 1px dotted&quot;&gt;numero_linea&lt;/span&gt;" style="ellipse;whiteSpace=wrap;html=1;align=center;" parent="1" vertex="1">
          <mxGeometry x="710" y="400" width="100" height="40" as="geometry" />
        </mxCell>
        <mxCell id="0yMVtmjUaFAXfvw1BAXP-95" value="" style="endArrow=none;html=1;rounded=0;entryX=0;entryY=0.5;entryDx=0;entryDy=0;exitX=1;exitY=0;exitDx=0;exitDy=0;" parent="1" source="0yMVtmjUaFAXfvw1BAXP-81" target="0yMVtmjUaFAXfvw1BAXP-93" edge="1">
          <mxGeometry relative="1" as="geometry">
            <mxPoint x="360" y="504" as="sourcePoint" />
            <mxPoint x="520" y="504" as="targetPoint" />
          </mxGeometry>
        </mxCell>
        <mxCell id="0yMVtmjUaFAXfvw1BAXP-96" value="Gestiona" style="shape=rhombus;perimeter=rhombusPerimeter;whiteSpace=wrap;html=1;align=center;" parent="1" vertex="1">
          <mxGeometry x="414" y="504" width="120" height="60" as="geometry" />
        </mxCell>
        <mxCell id="0yMVtmjUaFAXfvw1BAXP-97" value="" style="endArrow=none;html=1;rounded=0;entryX=0;entryY=0.5;entryDx=0;entryDy=0;exitX=1;exitY=0.5;exitDx=0;exitDy=0;" parent="1" source="0yMVtmjUaFAXfvw1BAXP-42" target="0yMVtmjUaFAXfvw1BAXP-96" edge="1">
          <mxGeometry relative="1" as="geometry">
            <mxPoint x="360" y="401" as="sourcePoint" />
            <mxPoint x="414" y="531" as="targetPoint" />
          </mxGeometry>
        </mxCell>
        <mxCell id="0yMVtmjUaFAXfvw1BAXP-99" value="(0,n)" style="text;html=1;align=center;verticalAlign=middle;resizable=0;points=[];autosize=1;strokeColor=none;fillColor=none;" parent="1" vertex="1">
          <mxGeometry x="623" y="197" width="50" height="30" as="geometry" />
        </mxCell>
        <mxCell id="0yMVtmjUaFAXfvw1BAXP-100" value="(1,n)" style="text;html=1;align=center;verticalAlign=middle;resizable=0;points=[];autosize=1;strokeColor=none;fillColor=none;" parent="1" vertex="1">
          <mxGeometry x="226" y="197" width="50" height="30" as="geometry" />
        </mxCell>
        <mxCell id="0yMVtmjUaFAXfvw1BAXP-101" value="N:M" style="text;html=1;align=center;verticalAlign=middle;resizable=0;points=[];autosize=1;strokeColor=none;fillColor=none;" parent="1" vertex="1">
          <mxGeometry x="443" y="54" width="50" height="30" as="geometry" />
        </mxCell>
        <mxCell id="0yMVtmjUaFAXfvw1BAXP-107" value="(1,1)" style="text;html=1;align=center;verticalAlign=middle;resizable=0;points=[];autosize=1;strokeColor=none;fillColor=none;" parent="1" vertex="1">
          <mxGeometry x="260" y="503" width="50" height="30" as="geometry" />
        </mxCell>
        <mxCell id="0yMVtmjUaFAXfvw1BAXP-110" value="(0,n)" style="text;html=1;align=center;verticalAlign=middle;resizable=0;points=[];autosize=1;strokeColor=none;fillColor=none;" parent="1" vertex="1">
          <mxGeometry x="567" y="248" width="50" height="30" as="geometry" />
        </mxCell>
        <mxCell id="0yMVtmjUaFAXfvw1BAXP-111" value="1:N" style="text;html=1;align=center;verticalAlign=middle;resizable=0;points=[];autosize=1;strokeColor=none;fillColor=none;" parent="1" vertex="1">
          <mxGeometry x="453" y="474" width="40" height="30" as="geometry" />
        </mxCell>
        <mxCell id="0yMVtmjUaFAXfvw1BAXP-112" value="(1,1)" style="text;html=1;align=center;verticalAlign=middle;resizable=0;points=[];autosize=1;strokeColor=none;fillColor=none;" parent="1" vertex="1">
          <mxGeometry x="621" y="260" width="50" height="30" as="geometry" />
        </mxCell>
        <mxCell id="0yMVtmjUaFAXfvw1BAXP-113" value="(0,n)" style="text;html=1;align=center;verticalAlign=middle;resizable=0;points=[];autosize=1;strokeColor=none;fillColor=none;" parent="1" vertex="1">
          <mxGeometry x="588" y="436" width="50" height="30" as="geometry" />
        </mxCell>
        <mxCell id="0yMVtmjUaFAXfvw1BAXP-114" value="&lt;div&gt;1:N&lt;/div&gt;" style="text;html=1;align=center;verticalAlign=middle;resizable=0;points=[];autosize=1;strokeColor=none;fillColor=none;" parent="1" vertex="1">
          <mxGeometry x="661" y="302" width="40" height="30" as="geometry" />
        </mxCell>
        <mxCell id="0yMVtmjUaFAXfvw1BAXP-115" value="(1,1)" style="text;html=1;align=center;verticalAlign=middle;resizable=0;points=[];autosize=1;strokeColor=none;fillColor=none;" parent="1" vertex="1">
          <mxGeometry x="620" y="736" width="50" height="30" as="geometry" />
        </mxCell>
        <mxCell id="0yMVtmjUaFAXfvw1BAXP-116" value="(0,n)" style="text;html=1;align=center;verticalAlign=middle;resizable=0;points=[];autosize=1;strokeColor=none;fillColor=none;" parent="1" vertex="1">
          <mxGeometry x="618" y="499" width="50" height="30" as="geometry" />
        </mxCell>
        <mxCell id="0yMVtmjUaFAXfvw1BAXP-117" value="1:N" style="text;html=1;align=center;verticalAlign=middle;resizable=0;points=[];autosize=1;strokeColor=none;fillColor=none;" parent="1" vertex="1">
          <mxGeometry x="626" y="569" width="40" height="30" as="geometry" />
        </mxCell>
        <mxCell id="0yMVtmjUaFAXfvw1BAXP-118" value="(0,n)" style="text;html=1;align=center;verticalAlign=middle;resizable=0;points=[];autosize=1;strokeColor=none;fillColor=none;" parent="1" vertex="1">
          <mxGeometry x="542" y="1024" width="50" height="30" as="geometry" />
        </mxCell>
        <mxCell id="0yMVtmjUaFAXfvw1BAXP-119" value="(0,n)" style="text;html=1;align=center;verticalAlign=middle;resizable=0;points=[];autosize=1;strokeColor=none;fillColor=none;" parent="1" vertex="1">
          <mxGeometry x="198" y="546" width="50" height="30" as="geometry" />
        </mxCell>
        <mxCell id="0yMVtmjUaFAXfvw1BAXP-120" value="N:M" style="text;html=1;align=center;verticalAlign=middle;resizable=0;points=[];autosize=1;strokeColor=none;fillColor=none;" parent="1" vertex="1">
          <mxGeometry x="165" y="993" width="50" height="30" as="geometry" />
        </mxCell>
        <mxCell id="0yMVtmjUaFAXfvw1BAXP-121" value="Existencia" style="shape=ext;margin=3;double=1;whiteSpace=wrap;html=1;align=center;" parent="1" vertex="1">
          <mxGeometry x="236" y="806" width="100" height="40" as="geometry" />
        </mxCell>
        <mxCell id="0yMVtmjUaFAXfvw1BAXP-123" value="&lt;span style=&quot;border-bottom: 1px dotted&quot;&gt;fecha_caducidad&lt;/span&gt;" style="ellipse;whiteSpace=wrap;html=1;align=center;" parent="1" vertex="1">
          <mxGeometry x="90" y="776" width="100" height="40" as="geometry" />
        </mxCell>
        <mxCell id="0yMVtmjUaFAXfvw1BAXP-124" value="cantidad" style="ellipse;whiteSpace=wrap;html=1;align=center;" parent="1" vertex="1">
          <mxGeometry x="90" y="834" width="100" height="40" as="geometry" />
        </mxCell>
        <mxCell id="0yMVtmjUaFAXfvw1BAXP-125" value="" style="endArrow=none;html=1;rounded=0;exitX=1;exitY=0.5;exitDx=0;exitDy=0;entryX=0;entryY=0.25;entryDx=0;entryDy=0;" parent="1" source="0yMVtmjUaFAXfvw1BAXP-123" target="0yMVtmjUaFAXfvw1BAXP-121" edge="1">
          <mxGeometry relative="1" as="geometry">
            <mxPoint x="430" y="804" as="sourcePoint" />
            <mxPoint x="590" y="804" as="targetPoint" />
          </mxGeometry>
        </mxCell>
        <mxCell id="0yMVtmjUaFAXfvw1BAXP-126" value="" style="endArrow=none;html=1;rounded=0;exitX=1;exitY=0.5;exitDx=0;exitDy=0;entryX=0;entryY=0.75;entryDx=0;entryDy=0;" parent="1" source="0yMVtmjUaFAXfvw1BAXP-124" target="0yMVtmjUaFAXfvw1BAXP-121" edge="1">
          <mxGeometry relative="1" as="geometry">
            <mxPoint x="430" y="804" as="sourcePoint" />
            <mxPoint x="590" y="804" as="targetPoint" />
          </mxGeometry>
        </mxCell>
        <mxCell id="0yMVtmjUaFAXfvw1BAXP-127" value="Incluye" style="shape=rhombus;perimeter=rhombusPerimeter;whiteSpace=wrap;html=1;align=center;" parent="1" vertex="1">
          <mxGeometry x="400" y="798.5" width="120" height="60" as="geometry" />
        </mxCell>
        <mxCell id="0yMVtmjUaFAXfvw1BAXP-128" value="" style="endArrow=none;html=1;rounded=0;exitX=1;exitY=0.5;exitDx=0;exitDy=0;" parent="1" source="0yMVtmjUaFAXfvw1BAXP-121" target="0yMVtmjUaFAXfvw1BAXP-127" edge="1">
          <mxGeometry relative="1" as="geometry">
            <mxPoint x="350" y="804" as="sourcePoint" />
            <mxPoint x="510" y="804" as="targetPoint" />
          </mxGeometry>
        </mxCell>
        <mxCell id="0yMVtmjUaFAXfvw1BAXP-130" value="(1,1)" style="text;html=1;align=center;verticalAlign=middle;resizable=0;points=[];autosize=1;strokeColor=none;fillColor=none;" parent="1" vertex="1">
          <mxGeometry x="535" y="757" width="50" height="30" as="geometry" />
        </mxCell>
        <mxCell id="0yMVtmjUaFAXfvw1BAXP-131" value="(0,n)" style="text;html=1;align=center;verticalAlign=middle;resizable=0;points=[];autosize=1;strokeColor=none;fillColor=none;" parent="1" vertex="1">
          <mxGeometry x="327" y="800" width="50" height="30" as="geometry" />
        </mxCell>
        <mxCell id="0yMVtmjUaFAXfvw1BAXP-132" value="1:N" style="text;html=1;align=center;verticalAlign=middle;resizable=0;points=[];autosize=1;strokeColor=none;fillColor=none;" parent="1" vertex="1">
          <mxGeometry x="440" y="769.5" width="40" height="30" as="geometry" />
        </mxCell>
        <mxCell id="0yMVtmjUaFAXfvw1BAXP-133" value="fecha_actualizacion" style="ellipse;whiteSpace=wrap;html=1;align=center;" parent="1" vertex="1">
          <mxGeometry x="224" y="714" width="122" height="46" as="geometry" />
        </mxCell>
        <mxCell id="0yMVtmjUaFAXfvw1BAXP-134" value="" style="endArrow=none;html=1;rounded=0;entryX=0.5;entryY=1;entryDx=0;entryDy=0;exitX=0.5;exitY=0;exitDx=0;exitDy=0;" parent="1" source="0yMVtmjUaFAXfvw1BAXP-121" target="0yMVtmjUaFAXfvw1BAXP-133" edge="1">
          <mxGeometry relative="1" as="geometry">
            <mxPoint x="320" y="890" as="sourcePoint" />
            <mxPoint x="480" y="890" as="targetPoint" />
          </mxGeometry>
        </mxCell>
        <mxCell id="0yMVtmjUaFAXfvw1BAXP-135" value="estado" style="ellipse;whiteSpace=wrap;html=1;align=center;" parent="1" vertex="1">
          <mxGeometry x="320" y="20" width="100" height="40" as="geometry" />
        </mxCell>
        <mxCell id="0yMVtmjUaFAXfvw1BAXP-136" value="" style="endArrow=none;html=1;rounded=0;entryX=1;entryY=1;entryDx=0;entryDy=0;exitX=0;exitY=0;exitDx=0;exitDy=0;" parent="1" source="0yMVtmjUaFAXfvw1BAXP-72" target="0yMVtmjUaFAXfvw1BAXP-135" edge="1">
          <mxGeometry relative="1" as="geometry">
            <mxPoint x="660" y="220" as="sourcePoint" />
            <mxPoint x="400" y="230" as="targetPoint" />
          </mxGeometry>
        </mxCell>
        <mxCell id="y5AKyJ1RVhucOHr4Nuto-1" value="" style="endArrow=none;html=1;rounded=0;exitX=1;exitY=0;exitDx=0;exitDy=0;entryX=0;entryY=1;entryDx=0;entryDy=0;" edge="1" parent="1" source="0yMVtmjUaFAXfvw1BAXP-96" target="0yMVtmjUaFAXfvw1BAXP-63">
          <mxGeometry relative="1" as="geometry">
            <mxPoint x="580" y="440" as="sourcePoint" />
            <mxPoint x="590" y="300" as="targetPoint" />
            <Array as="points">
              <mxPoint x="510" y="390" />
            </Array>
          </mxGeometry>
        </mxCell>
        <mxCell id="y5AKyJ1RVhucOHr4Nuto-2" value="&lt;div&gt;&lt;u&gt;numero&lt;/u&gt;&lt;/div&gt;" style="ellipse;whiteSpace=wrap;html=1;align=center;" vertex="1" parent="1">
          <mxGeometry x="701" y="120" width="100" height="40" as="geometry" />
        </mxCell>
        <mxCell id="y5AKyJ1RVhucOHr4Nuto-3" value="" style="endArrow=none;html=1;rounded=0;entryX=0;entryY=1;entryDx=0;entryDy=0;exitX=0.75;exitY=0;exitDx=0;exitDy=0;" edge="1" parent="1" source="0yMVtmjUaFAXfvw1BAXP-63" target="y5AKyJ1RVhucOHr4Nuto-2">
          <mxGeometry relative="1" as="geometry">
            <mxPoint x="410" y="290" as="sourcePoint" />
            <mxPoint x="570" y="290" as="targetPoint" />
          </mxGeometry>
        </mxCell>
        <mxCell id="y5AKyJ1RVhucOHr4Nuto-5" value="unidad" style="ellipse;whiteSpace=wrap;html=1;align=center;" vertex="1" parent="1">
          <mxGeometry x="235" y="903" width="100" height="40" as="geometry" />
        </mxCell>
        <mxCell id="y5AKyJ1RVhucOHr4Nuto-6" value="" style="endArrow=none;html=1;rounded=0;exitX=0.5;exitY=1;exitDx=0;exitDy=0;entryX=0.5;entryY=0;entryDx=0;entryDy=0;" edge="1" parent="1" source="0yMVtmjUaFAXfvw1BAXP-121" target="y5AKyJ1RVhucOHr4Nuto-5">
          <mxGeometry relative="1" as="geometry">
            <mxPoint x="490" y="860" as="sourcePoint" />
            <mxPoint x="650" y="860" as="targetPoint" />
          </mxGeometry>
        </mxCell>
        <mxCell id="y5AKyJ1RVhucOHr4Nuto-7" value="unidad" style="ellipse;whiteSpace=wrap;html=1;align=center;" vertex="1" parent="1">
          <mxGeometry x="710" y="529" width="100" height="40" as="geometry" />
        </mxCell>
        <mxCell id="y5AKyJ1RVhucOHr4Nuto-8" value="" style="endArrow=none;html=1;rounded=0;entryX=0;entryY=0.5;entryDx=0;entryDy=0;exitX=1;exitY=1;exitDx=0;exitDy=0;" edge="1" parent="1" source="0yMVtmjUaFAXfvw1BAXP-81" target="y5AKyJ1RVhucOHr4Nuto-7">
          <mxGeometry relative="1" as="geometry">
            <mxPoint x="410" y="430" as="sourcePoint" />
            <mxPoint x="570" y="430" as="targetPoint" />
          </mxGeometry>
        </mxCell>
        <mxCell id="y5AKyJ1RVhucOHr4Nuto-11" value="Producto" style="whiteSpace=wrap;html=1;align=center;" vertex="1" parent="1">
          <mxGeometry x="584" y="1033" width="100" height="40" as="geometry" />
        </mxCell>
        <mxCell id="y5AKyJ1RVhucOHr4Nuto-12" value="nombre" style="ellipse;whiteSpace=wrap;html=1;align=center;" vertex="1" parent="1">
          <mxGeometry x="716" y="966" width="100" height="40" as="geometry" />
        </mxCell>
        <mxCell id="y5AKyJ1RVhucOHr4Nuto-13" value="descripcion" style="ellipse;whiteSpace=wrap;html=1;align=center;" vertex="1" parent="1">
          <mxGeometry x="722" y="1033" width="100" height="40" as="geometry" />
        </mxCell>
        <mxCell id="y5AKyJ1RVhucOHr4Nuto-17" value="" style="endArrow=none;html=1;rounded=0;exitX=0;exitY=1;exitDx=0;exitDy=0;entryX=1;entryY=0.25;entryDx=0;entryDy=0;" edge="1" parent="1" source="y5AKyJ1RVhucOHr4Nuto-12" target="y5AKyJ1RVhucOHr4Nuto-11">
          <mxGeometry relative="1" as="geometry">
            <mxPoint x="294" y="1223" as="sourcePoint" />
            <mxPoint x="454" y="1223" as="targetPoint" />
          </mxGeometry>
        </mxCell>
        <mxCell id="y5AKyJ1RVhucOHr4Nuto-18" value="" style="endArrow=none;html=1;rounded=0;entryX=0;entryY=0.5;entryDx=0;entryDy=0;exitX=1;exitY=0.5;exitDx=0;exitDy=0;" edge="1" parent="1" source="y5AKyJ1RVhucOHr4Nuto-11" target="y5AKyJ1RVhucOHr4Nuto-13">
          <mxGeometry relative="1" as="geometry">
            <mxPoint x="294" y="1223" as="sourcePoint" />
            <mxPoint x="454" y="1223" as="targetPoint" />
          </mxGeometry>
        </mxCell>
        <mxCell id="y5AKyJ1RVhucOHr4Nuto-20" value="(1,1)" style="text;html=1;align=center;verticalAlign=middle;resizable=0;points=[];autosize=1;strokeColor=none;fillColor=none;" vertex="1" parent="1">
          <mxGeometry x="595" y="1004" width="50" height="30" as="geometry" />
        </mxCell>
        <mxCell id="y5AKyJ1RVhucOHr4Nuto-21" value="Producto especifico" style="shape=ext;margin=3;double=1;whiteSpace=wrap;html=1;align=center;" vertex="1" parent="1">
          <mxGeometry x="579" y="764" width="100" height="40" as="geometry" />
        </mxCell>
        <mxCell id="y5AKyJ1RVhucOHr4Nuto-23" value="Pertenece a" style="shape=rhombus;perimeter=rhombusPerimeter;whiteSpace=wrap;html=1;align=center;" vertex="1" parent="1">
          <mxGeometry x="471" y="924" width="120" height="60" as="geometry" />
        </mxCell>
        <mxCell id="y5AKyJ1RVhucOHr4Nuto-24" value="" style="endArrow=none;html=1;rounded=0;exitX=1;exitY=1;exitDx=0;exitDy=0;entryX=0.25;entryY=0;entryDx=0;entryDy=0;" edge="1" parent="1" source="y5AKyJ1RVhucOHr4Nuto-23" target="y5AKyJ1RVhucOHr4Nuto-11">
          <mxGeometry relative="1" as="geometry">
            <mxPoint x="510" y="910" as="sourcePoint" />
            <mxPoint x="670" y="910" as="targetPoint" />
          </mxGeometry>
        </mxCell>
        <mxCell id="y5AKyJ1RVhucOHr4Nuto-25" value="" style="endArrow=none;html=1;rounded=0;exitX=1;exitY=0;exitDx=0;exitDy=0;entryX=0.5;entryY=1;entryDx=0;entryDy=0;" edge="1" parent="1" source="y5AKyJ1RVhucOHr4Nuto-23" target="y5AKyJ1RVhucOHr4Nuto-21">
          <mxGeometry relative="1" as="geometry">
            <mxPoint x="510" y="910" as="sourcePoint" />
            <mxPoint x="670" y="910" as="targetPoint" />
            <Array as="points" />
          </mxGeometry>
        </mxCell>
        <mxCell id="y5AKyJ1RVhucOHr4Nuto-26" value="(1,n)" style="text;html=1;align=center;verticalAlign=middle;resizable=0;points=[];autosize=1;strokeColor=none;fillColor=none;" vertex="1" parent="1">
          <mxGeometry x="580" y="799" width="50" height="30" as="geometry" />
        </mxCell>
        <mxCell id="y5AKyJ1RVhucOHr4Nuto-27" value="1:N" style="text;html=1;align=center;verticalAlign=middle;resizable=0;points=[];autosize=1;strokeColor=none;fillColor=none;" vertex="1" parent="1">
          <mxGeometry x="510" y="894" width="40" height="30" as="geometry" />
        </mxCell>
        <mxCell id="y5AKyJ1RVhucOHr4Nuto-28" value="&lt;u&gt;codigo&lt;/u&gt;" style="ellipse;whiteSpace=wrap;html=1;align=center;" vertex="1" parent="1">
          <mxGeometry x="713" y="1100" width="100" height="40" as="geometry" />
        </mxCell>
        <mxCell id="y5AKyJ1RVhucOHr4Nuto-29" value="" style="endArrow=none;html=1;rounded=0;exitX=0;exitY=0.5;exitDx=0;exitDy=0;entryX=1;entryY=0.5;entryDx=0;entryDy=0;" edge="1" parent="1" source="y5AKyJ1RVhucOHr4Nuto-21" target="0yMVtmjUaFAXfvw1BAXP-127">
          <mxGeometry relative="1" as="geometry">
            <mxPoint x="570" y="850" as="sourcePoint" />
            <mxPoint x="730" y="850" as="targetPoint" />
            <Array as="points">
              <mxPoint x="520" y="784" />
            </Array>
          </mxGeometry>
        </mxCell>
        <mxCell id="y5AKyJ1RVhucOHr4Nuto-30" value="&lt;span style=&quot;border-bottom: 1px dotted&quot;&gt;posologia&lt;br&gt;&lt;/span&gt;" style="ellipse;whiteSpace=wrap;html=1;align=center;" vertex="1" parent="1">
          <mxGeometry x="709" y="693" width="100" height="40" as="geometry" />
        </mxCell>
        <mxCell id="y5AKyJ1RVhucOHr4Nuto-31" value="&lt;span style=&quot;border-bottom: 1px dotted&quot;&gt;formato&lt;/span&gt;" style="ellipse;whiteSpace=wrap;html=1;align=center;" vertex="1" parent="1">
          <mxGeometry x="716" y="764" width="100" height="40" as="geometry" />
        </mxCell>
      </root>
    </mxGraphModel>
  </diagram>
</mxfile>
